<?xml version="1.0" encoding="iso-8859-1"?>
<!-- Generator: Adobe Illustrator 19.0.0, SVG Export Plug-In . SVG Version: 6.00 Build 0)  -->
<svg version="1.1" id="Layer_1" xmlns="http://www.w3.org/2000/svg" xmlns:xlink="http://www.w3.org/1999/xlink" x="0px" y="0px"
	 viewBox="0 0 511.999 511.999" style="enable-background:new 0 0 511.999 511.999;" xml:space="preserve">
<g>
	<g>
		<path d="M394.603,266.553c-12.978,0-71.266,0-80.576,0c2.423-3.085,4.044-6.802,4.589-10.832
			c2.542-18.771,14.321-105.767,15.965-117.905c1.661-12.268-6.936-23.558-19.204-25.219c-2.307-0.314-4.578-0.266-6.757,0.101
			c1.857-3.301,3.371-6.859,4.46-10.659c7.526-26.266-7.667-53.659-33.933-61.183c-26.266-7.525-53.659,7.667-61.183,33.933
			c-7.524,26.266,7.667,53.659,33.933,61.183c13.431,3.848,27.152,1.744,38.365-4.732c-0.03,0.189-0.079,0.37-0.105,0.559
			c-1.036,7.651-9.016,66.59-10.301,76.072l-44.783-40.011l30.414,16.862c0.597-15.037-9.079-29.101-24.19-33.43
			c-23.049-6.604-47.811-3.284-68.307,9.159c-20.497,12.443-34.866,32.878-39.643,56.375l-14.183,69.764
			c-3.534,17.382,0.927,35.431,12.15,49.165c8.079,9.887,19.055,16.764,31.184,19.853h-47.016L84.41,197.539
			c-1.976-10.054-11.728-16.599-21.783-14.626C52.572,184.89,46.023,194.643,48,204.697l34.016,173.045
			c1.67,8.498,8.991,14.665,17.594,14.947L63.942,485.17c-2.459,6.374,0.716,13.534,7.09,15.991
			c6.381,2.46,13.535-0.722,15.991-7.089l39.089-101.357h78.091l22.35,57.952l-9.707,24.531
			c-5.466,13.813,1.301,29.44,15.113,34.906c13.818,5.466,29.442-1.305,34.906-15.113L327.922,340.7
			c3.283-8.294,2.239-17.678-2.788-25.05c-4.926-7.224-13.194-11.743-22.222-11.743c-0.026,0-0.053,0-0.079,0
			c-14.635,0.043-56.413,0.165-70.555,0.206l13.506-47.142l-32.074-48.083l64.541,57.665h-12.73
			c-6.902,0-12.369,5.656-12.369,12.369c0,6.83,5.538,12.369,12.369,12.369c17.21,0,111.865,0,129.081,0
			c6.831,0,12.369-5.539,12.369-12.369C406.972,272.091,401.434,266.553,394.603,266.553z M248.648,374.163
			c0-7.018-3.899-13.123-9.647-16.276l24.296-0.071l-23.317,58.92l-9.276-24.051C240.667,392.361,248.648,384.204,248.648,374.163z"
			/>
	</g>
</g>
<g>
	<g>
		<g>
			<path d="M427.371,103.104c-6.305,0-11.417,5.282-11.417,11.588c0,6.135,4.941,11.589,11.417,11.589
				c6.477,0,11.589-5.454,11.589-11.589C438.959,108.386,433.676,103.103,427.371,103.104z"/>
			<path d="M429.244,0c-20.621,0-31.357,11.93-31.357,20.11c0,5.623,4.602,8.179,8.521,8.179c7.84,0,5.624-11.759,22.324-11.759
				c10.396,0,17.553,5.112,17.553,14.656c0,11.589-10.737,17.552-16.702,23.177c-4.771,4.261-10.225,11.076-10.225,26.926
				c0,7.328,2.216,9.543,7.84,9.543c6.987,0,8.521-3.068,8.521-6.135c0-9.884,0.17-15.678,8.521-22.495
				c5.112-4.772,20.109-15.85,20.109-33.403C464.351,12.442,450.887,0,429.244,0z"/>
		</g>
	</g>
</g>
<g>
</g>
<g>
</g>
<g>
</g>
<g>
</g>
<g>
</g>
<g>
</g>
<g>
</g>
<g>
</g>
<g>
</g>
<g>
</g>
<g>
</g>
<g>
</g>
<g>
</g>
<g>
</g>
<g>
</g>
</svg>
