<?xml version="1.0" encoding="iso-8859-1"?>
<!-- Generator: Adobe Illustrator 16.0.0, SVG Export Plug-In . SVG Version: 6.00 Build 0)  -->
<!DOCTYPE svg PUBLIC "-//W3C//DTD SVG 1.1//EN" "http://www.w3.org/Graphics/SVG/1.1/DTD/svg11.dtd">
<svg version="1.1" id="Capa_1" xmlns="http://www.w3.org/2000/svg" xmlns:xlink="http://www.w3.org/1999/xlink" x="0px" y="0px"
	 width="31.632px" height="31.632px" viewBox="0 0 31.632 31.632" style="enable-background:new 0 0 31.632 31.632;"
	 xml:space="preserve">
<g>
	<g>
		<circle cx="15.818" cy="3.246" r="3.246"/>
		<path d="M20.894,20.121V8.375c0-0.775-0.63-1.404-1.406-1.404c-0.037,0-7.376-0.001-7.376-0.001v0.005
			c-0.761,0.017-1.372,0.636-1.372,1.4v11.746c0,0.775,0.629,1.404,1.405,1.404c0.319,0,0.61-0.11,0.846-0.289v8.99
			c0,0.776,0.629,1.405,1.405,1.405c0.776,0,1.405-0.629,1.405-1.405h0.038c0,0.776,0.629,1.405,1.405,1.405
			c0.775,0,1.404-0.629,1.404-1.405V21.24c0.235,0.177,0.524,0.285,0.842,0.285C20.264,21.525,20.894,20.896,20.894,20.121z"/>
		<path d="M9.763,5.968c0.879,0,1.661-0.388,2.207-0.992c-0.245-0.529-0.398-1.108-0.398-1.729c0-0.752,0.213-1.448,0.557-2.061
			C11.584,0.47,10.732,0,9.763,0C8.115,0,6.779,1.336,6.779,2.984S8.115,5.968,9.763,5.968z"/>
		<path d="M9.738,20.121V8.375c0-0.811,0.417-1.531,1.043-1.967C8.822,6.407,6.355,6.407,6.355,6.407v0.005
			c-0.7,0.014-1.262,0.584-1.262,1.287v10.798c0,0.713,0.578,1.292,1.292,1.292c0.293,0,0.561-0.104,0.777-0.268v8.267
			c0,0.714,0.578,1.292,1.292,1.292c0.714,0,1.292-0.578,1.292-1.292h0.036c0,0.714,0.578,1.292,1.292,1.292
			c0.359,0,0.683-0.146,0.917-0.383v-6.176C10.734,22.441,9.738,21.395,9.738,20.121z"/>
		<path d="M19.664,4.98c0.546,0.603,1.327,0.988,2.204,0.988c1.648,0,2.984-1.336,2.984-2.983c0-1.648-1.336-2.984-2.984-2.984
			c-0.967,0-1.818,0.468-2.363,1.182c0.346,0.614,0.559,1.312,0.559,2.064C20.063,3.87,19.909,4.45,19.664,4.98z"/>
		<path d="M25.276,6.412V6.407c0,0-2.457,0-4.414,0.001c0.621,0.435,1.029,1.152,1.029,1.967v11.746c0,1.271-0.994,2.316-2.246,2.4
			v6.182c0.233,0.232,0.557,0.377,0.912,0.377c0.713,0,1.293-0.578,1.293-1.292h0.035c0,0.714,0.578,1.292,1.292,1.292
			s1.292-0.578,1.292-1.292v-8.267c0.217,0.164,0.484,0.268,0.777,0.268c0.713,0,1.292-0.579,1.292-1.292V7.699
			C26.538,6.996,25.976,6.426,25.276,6.412z"/>
	</g>
</g>
<g>
</g>
<g>
</g>
<g>
</g>
<g>
</g>
<g>
</g>
<g>
</g>
<g>
</g>
<g>
</g>
<g>
</g>
<g>
</g>
<g>
</g>
<g>
</g>
<g>
</g>
<g>
</g>
<g>
</g>
</svg>
